<svg width="53" height="53" viewBox="0 0 53 53" fill="none" xmlns="http://www.w3.org/2000/svg">
<rect x="1.24922" y="0.876172" width="51.4" height="51.4" rx="25.7" stroke="#9DA296" stroke-width="0.6"/>
<path d="M38.7158 24.226H37.7492V24.1762H26.9492V28.9762H33.731C32.7416 31.7704 30.083 33.7762 26.9492 33.7762C22.973 33.7762 19.7492 30.5524 19.7492 26.5762C19.7492 22.6 22.973 19.3762 26.9492 19.3762C28.7846 19.3762 30.4544 20.0686 31.7258 21.1996L35.12 17.8054C32.9768 15.808 30.11 14.5762 26.9492 14.5762C20.3222 14.5762 14.9492 19.9492 14.9492 26.5762C14.9492 33.2032 20.3222 38.5762 26.9492 38.5762C33.5762 38.5762 38.9492 33.2032 38.9492 26.5762C38.9492 25.7716 38.8664 24.9862 38.7158 24.226Z" fill="#FFC107"/>
<path d="M16.333 20.9908L20.2756 23.8822C21.3424 21.241 23.926 19.3762 26.9494 19.3762C28.7848 19.3762 30.4546 20.0686 31.726 21.1996L35.1202 17.8054C32.977 15.808 30.1102 14.5762 26.9494 14.5762C22.3402 14.5762 18.343 17.1784 16.333 20.9908Z" fill="#FF3D00"/>
<path d="M26.9496 38.5764C30.0492 38.5764 32.8656 37.3902 34.995 35.4612L31.281 32.3184C30.0762 33.231 28.5786 33.7764 26.9496 33.7764C23.8284 33.7764 21.1782 31.7862 20.1798 29.0088L16.2666 32.0238C18.2526 35.91 22.2858 38.5764 26.9496 38.5764Z" fill="#4CAF50"/>
<path d="M38.7158 24.2256H37.7492V24.1758H26.9492V28.9758H33.731C33.2558 30.318 32.3924 31.4754 31.2788 32.3184C31.2794 32.3178 31.28 32.3178 31.2806 32.3172L34.9946 35.46C34.7318 35.6988 38.9492 32.5758 38.9492 26.5758C38.9492 25.7712 38.8664 24.9858 38.7158 24.2256Z" fill="#1976D2"/>
</svg>
